<?xml version="1.0" encoding="utf-8" standalone="no"?>
<!DOCTYPE svg PUBLIC "-//W3C//DTD SVG 1.1//EN"
  "http://www.w3.org/Graphics/SVG/1.1/DTD/svg11.dtd">
<svg xmlns:xlink="http://www.w3.org/1999/xlink" width="424.38125pt" height="280.15625pt" viewBox="0 0 424.38125 280.15625" xmlns="http://www.w3.org/2000/svg" version="1.1">
 <metadata>
  <rdf:RDF xmlns:dc="http://purl.org/dc/elements/1.1/" xmlns:cc="http://creativecommons.org/ns#" xmlns:rdf="http://www.w3.org/1999/02/22-rdf-syntax-ns#">
   <cc:Work>
    <dc:type rdf:resource="http://purl.org/dc/dcmitype/StillImage"/>
    <dc:date>2022-03-23T01:20:09.390776</dc:date>
    <dc:format>image/svg+xml</dc:format>
    <dc:creator>
     <cc:Agent>
      <dc:title>Matplotlib v3.5.1, https://matplotlib.org/</dc:title>
     </cc:Agent>
    </dc:creator>
   </cc:Work>
  </rdf:RDF>
 </metadata>
 <defs>
  <style type="text/css">*{stroke-linejoin: round; stroke-linecap: butt}</style>
 </defs>
 <g id="figure_1">
  <g id="patch_1">
   <path d="M 0 280.15625 
L 424.38125 280.15625 
L 424.38125 0 
L 0 0 
L 0 280.15625 
z
" style="fill: none"/>
  </g>
  <g id="axes_1">
   <g id="patch_2">
    <path d="M 43.78125 242.6 
L 417.18125 242.6 
L 417.18125 7.2 
L 43.78125 7.2 
z
" style="fill: #ffffff"/>
   </g>
   <g id="PathCollection_1">
    <defs>
     <path id="mc87f2788e9" d="M 0 11.18034 
C 2.965061 11.18034 5.80908 10.002309 7.905694 7.905694 
C 10.002309 5.80908 11.18034 2.965061 11.18034 0 
C 11.18034 -2.965061 10.002309 -5.80908 7.905694 -7.905694 
C 5.80908 -10.002309 2.965061 -11.18034 0 -11.18034 
C -2.965061 -11.18034 -5.80908 -10.002309 -7.905694 -7.905694 
C -10.002309 -5.80908 -11.18034 -2.965061 -11.18034 0 
C -11.18034 2.965061 -10.002309 5.80908 -7.905694 7.905694 
C -5.80908 10.002309 -2.965061 11.18034 0 11.18034 
z
" style="stroke: #ff0000"/>
    </defs>
    <g clip-path="url(#p6387b69728)">
     <use xlink:href="#mc87f2788e9" x="297.328067" y="231.9" style="fill: #ff0000; stroke: #ff0000"/>
     <use xlink:href="#mc87f2788e9" x="231.141179" y="182.397036" style="fill: #ff0000; stroke: #ff0000"/>
     <use xlink:href="#mc87f2788e9" x="151.22689" y="215.502614" style="fill: #ff0000; stroke: #ff0000"/>
     <use xlink:href="#mc87f2788e9" x="111.157057" y="112.672436" style="fill: #ff0000; stroke: #ff0000"/>
     <use xlink:href="#mc87f2788e9" x="285.303101" y="166.123003" style="fill: #ff0000; stroke: #ff0000"/>
     <use xlink:href="#mc87f2788e9" x="241.825013" y="202.442946" style="fill: #ff0000; stroke: #ff0000"/>
     <use xlink:href="#mc87f2788e9" x="217.391628" y="131.639143" style="fill: #ff0000; stroke: #ff0000"/>
     <use xlink:href="#mc87f2788e9" x="267.991015" y="91.11748" style="fill: #ff0000; stroke: #ff0000"/>
     <use xlink:href="#mc87f2788e9" x="330.645055" y="159.485231" style="fill: #ff0000; stroke: #ff0000"/>
     <use xlink:href="#mc87f2788e9" x="137.852742" y="35.889521" style="fill: #ff0000; stroke: #ff0000"/>
     <use xlink:href="#mc87f2788e9" x="243.048193" y="38.168664" style="fill: #ff0000; stroke: #ff0000"/>
     <use xlink:href="#mc87f2788e9" x="195.51307" y="53.850705" style="fill: #ff0000; stroke: #ff0000"/>
     <use xlink:href="#mc87f2788e9" x="189.171043" y="196.90035" style="fill: #ff0000; stroke: #ff0000"/>
     <use xlink:href="#mc87f2788e9" x="309.406331" y="200.263843" style="fill: #ff0000; stroke: #ff0000"/>
     <use xlink:href="#mc87f2788e9" x="349.805443" y="126.231267" style="fill: #ff0000; stroke: #ff0000"/>
     <use xlink:href="#mc87f2788e9" x="255.126574" y="17.9" style="fill: #ff0000; stroke: #ff0000"/>
     <use xlink:href="#mc87f2788e9" x="119.729263" y="150.279291" style="fill: #ff0000; stroke: #ff0000"/>
     <use xlink:href="#mc87f2788e9" x="190.434468" y="49.196843" style="fill: #ff0000; stroke: #ff0000"/>
     <use xlink:href="#mc87f2788e9" x="186.603089" y="82.51648" style="fill: #ff0000; stroke: #ff0000"/>
     <use xlink:href="#mc87f2788e9" x="323.674016" y="51.765996" style="fill: #ff0000; stroke: #ff0000"/>
    </g>
   </g>
   <g id="matplotlib.axis_1">
    <g id="xtick_1">
     <g id="line2d_1">
      <defs>
       <path id="m0d07a8eaef" d="M 0 0 
L 0 3.5 
" style="stroke: #000000; stroke-width: 0.8"/>
      </defs>
      <g>
       <use xlink:href="#m0d07a8eaef" x="61.677488" y="242.6" style="stroke: #000000; stroke-width: 0.8"/>
      </g>
     </g>
     <g id="text_1">
      <!-- −0.2 -->
      <g transform="translate(49.536082 257.198437)scale(0.1 -0.1)">
       <defs>
        <path id="DejaVuSans-2212" d="M 678 2272 
L 4684 2272 
L 4684 1741 
L 678 1741 
L 678 2272 
z
" transform="scale(0.015625)"/>
        <path id="DejaVuSans-30" d="M 2034 4250 
Q 1547 4250 1301 3770 
Q 1056 3291 1056 2328 
Q 1056 1369 1301 889 
Q 1547 409 2034 409 
Q 2525 409 2770 889 
Q 3016 1369 3016 2328 
Q 3016 3291 2770 3770 
Q 2525 4250 2034 4250 
z
M 2034 4750 
Q 2819 4750 3233 4129 
Q 3647 3509 3647 2328 
Q 3647 1150 3233 529 
Q 2819 -91 2034 -91 
Q 1250 -91 836 529 
Q 422 1150 422 2328 
Q 422 3509 836 4129 
Q 1250 4750 2034 4750 
z
" transform="scale(0.015625)"/>
        <path id="DejaVuSans-2e" d="M 684 794 
L 1344 794 
L 1344 0 
L 684 0 
L 684 794 
z
" transform="scale(0.015625)"/>
        <path id="DejaVuSans-32" d="M 1228 531 
L 3431 531 
L 3431 0 
L 469 0 
L 469 531 
Q 828 903 1448 1529 
Q 2069 2156 2228 2338 
Q 2531 2678 2651 2914 
Q 2772 3150 2772 3378 
Q 2772 3750 2511 3984 
Q 2250 4219 1831 4219 
Q 1534 4219 1204 4116 
Q 875 4013 500 3803 
L 500 4441 
Q 881 4594 1212 4672 
Q 1544 4750 1819 4750 
Q 2544 4750 2975 4387 
Q 3406 4025 3406 3419 
Q 3406 3131 3298 2873 
Q 3191 2616 2906 2266 
Q 2828 2175 2409 1742 
Q 1991 1309 1228 531 
z
" transform="scale(0.015625)"/>
       </defs>
       <use xlink:href="#DejaVuSans-2212"/>
       <use xlink:href="#DejaVuSans-30" x="83.789062"/>
       <use xlink:href="#DejaVuSans-2e" x="147.412109"/>
       <use xlink:href="#DejaVuSans-32" x="179.199219"/>
      </g>
     </g>
    </g>
    <g id="xtick_2">
     <g id="line2d_2">
      <g>
       <use xlink:href="#m0d07a8eaef" x="110.199175" y="242.6" style="stroke: #000000; stroke-width: 0.8"/>
      </g>
     </g>
     <g id="text_2">
      <!-- 0.0 -->
      <g transform="translate(102.247612 257.198437)scale(0.1 -0.1)">
       <use xlink:href="#DejaVuSans-30"/>
       <use xlink:href="#DejaVuSans-2e" x="63.623047"/>
       <use xlink:href="#DejaVuSans-30" x="95.410156"/>
      </g>
     </g>
    </g>
    <g id="xtick_3">
     <g id="line2d_3">
      <g>
       <use xlink:href="#m0d07a8eaef" x="158.720861" y="242.6" style="stroke: #000000; stroke-width: 0.8"/>
      </g>
     </g>
     <g id="text_3">
      <!-- 0.2 -->
      <g transform="translate(150.769299 257.198437)scale(0.1 -0.1)">
       <use xlink:href="#DejaVuSans-30"/>
       <use xlink:href="#DejaVuSans-2e" x="63.623047"/>
       <use xlink:href="#DejaVuSans-32" x="95.410156"/>
      </g>
     </g>
    </g>
    <g id="xtick_4">
     <g id="line2d_4">
      <g>
       <use xlink:href="#m0d07a8eaef" x="207.242547" y="242.6" style="stroke: #000000; stroke-width: 0.8"/>
      </g>
     </g>
     <g id="text_4">
      <!-- 0.4 -->
      <g transform="translate(199.290985 257.198437)scale(0.1 -0.1)">
       <defs>
        <path id="DejaVuSans-34" d="M 2419 4116 
L 825 1625 
L 2419 1625 
L 2419 4116 
z
M 2253 4666 
L 3047 4666 
L 3047 1625 
L 3713 1625 
L 3713 1100 
L 3047 1100 
L 3047 0 
L 2419 0 
L 2419 1100 
L 313 1100 
L 313 1709 
L 2253 4666 
z
" transform="scale(0.015625)"/>
       </defs>
       <use xlink:href="#DejaVuSans-30"/>
       <use xlink:href="#DejaVuSans-2e" x="63.623047"/>
       <use xlink:href="#DejaVuSans-34" x="95.410156"/>
      </g>
     </g>
    </g>
    <g id="xtick_5">
     <g id="line2d_5">
      <g>
       <use xlink:href="#m0d07a8eaef" x="255.764234" y="242.6" style="stroke: #000000; stroke-width: 0.8"/>
      </g>
     </g>
     <g id="text_5">
      <!-- 0.6 -->
      <g transform="translate(247.812671 257.198437)scale(0.1 -0.1)">
       <defs>
        <path id="DejaVuSans-36" d="M 2113 2584 
Q 1688 2584 1439 2293 
Q 1191 2003 1191 1497 
Q 1191 994 1439 701 
Q 1688 409 2113 409 
Q 2538 409 2786 701 
Q 3034 994 3034 1497 
Q 3034 2003 2786 2293 
Q 2538 2584 2113 2584 
z
M 3366 4563 
L 3366 3988 
Q 3128 4100 2886 4159 
Q 2644 4219 2406 4219 
Q 1781 4219 1451 3797 
Q 1122 3375 1075 2522 
Q 1259 2794 1537 2939 
Q 1816 3084 2150 3084 
Q 2853 3084 3261 2657 
Q 3669 2231 3669 1497 
Q 3669 778 3244 343 
Q 2819 -91 2113 -91 
Q 1303 -91 875 529 
Q 447 1150 447 2328 
Q 447 3434 972 4092 
Q 1497 4750 2381 4750 
Q 2619 4750 2861 4703 
Q 3103 4656 3366 4563 
z
" transform="scale(0.015625)"/>
       </defs>
       <use xlink:href="#DejaVuSans-30"/>
       <use xlink:href="#DejaVuSans-2e" x="63.623047"/>
       <use xlink:href="#DejaVuSans-36" x="95.410156"/>
      </g>
     </g>
    </g>
    <g id="xtick_6">
     <g id="line2d_6">
      <g>
       <use xlink:href="#m0d07a8eaef" x="304.28592" y="242.6" style="stroke: #000000; stroke-width: 0.8"/>
      </g>
     </g>
     <g id="text_6">
      <!-- 0.8 -->
      <g transform="translate(296.334358 257.198437)scale(0.1 -0.1)">
       <defs>
        <path id="DejaVuSans-38" d="M 2034 2216 
Q 1584 2216 1326 1975 
Q 1069 1734 1069 1313 
Q 1069 891 1326 650 
Q 1584 409 2034 409 
Q 2484 409 2743 651 
Q 3003 894 3003 1313 
Q 3003 1734 2745 1975 
Q 2488 2216 2034 2216 
z
M 1403 2484 
Q 997 2584 770 2862 
Q 544 3141 544 3541 
Q 544 4100 942 4425 
Q 1341 4750 2034 4750 
Q 2731 4750 3128 4425 
Q 3525 4100 3525 3541 
Q 3525 3141 3298 2862 
Q 3072 2584 2669 2484 
Q 3125 2378 3379 2068 
Q 3634 1759 3634 1313 
Q 3634 634 3220 271 
Q 2806 -91 2034 -91 
Q 1263 -91 848 271 
Q 434 634 434 1313 
Q 434 1759 690 2068 
Q 947 2378 1403 2484 
z
M 1172 3481 
Q 1172 3119 1398 2916 
Q 1625 2713 2034 2713 
Q 2441 2713 2670 2916 
Q 2900 3119 2900 3481 
Q 2900 3844 2670 4047 
Q 2441 4250 2034 4250 
Q 1625 4250 1398 4047 
Q 1172 3844 1172 3481 
z
" transform="scale(0.015625)"/>
       </defs>
       <use xlink:href="#DejaVuSans-30"/>
       <use xlink:href="#DejaVuSans-2e" x="63.623047"/>
       <use xlink:href="#DejaVuSans-38" x="95.410156"/>
      </g>
     </g>
    </g>
    <g id="xtick_7">
     <g id="line2d_7">
      <g>
       <use xlink:href="#m0d07a8eaef" x="352.807607" y="242.6" style="stroke: #000000; stroke-width: 0.8"/>
      </g>
     </g>
     <g id="text_7">
      <!-- 1.0 -->
      <g transform="translate(344.856044 257.198437)scale(0.1 -0.1)">
       <defs>
        <path id="DejaVuSans-31" d="M 794 531 
L 1825 531 
L 1825 4091 
L 703 3866 
L 703 4441 
L 1819 4666 
L 2450 4666 
L 2450 531 
L 3481 531 
L 3481 0 
L 794 0 
L 794 531 
z
" transform="scale(0.015625)"/>
       </defs>
       <use xlink:href="#DejaVuSans-31"/>
       <use xlink:href="#DejaVuSans-2e" x="63.623047"/>
       <use xlink:href="#DejaVuSans-30" x="95.410156"/>
      </g>
     </g>
    </g>
    <g id="xtick_8">
     <g id="line2d_8">
      <g>
       <use xlink:href="#m0d07a8eaef" x="401.329293" y="242.6" style="stroke: #000000; stroke-width: 0.8"/>
      </g>
     </g>
     <g id="text_8">
      <!-- 1.2 -->
      <g transform="translate(393.377731 257.198437)scale(0.1 -0.1)">
       <use xlink:href="#DejaVuSans-31"/>
       <use xlink:href="#DejaVuSans-2e" x="63.623047"/>
       <use xlink:href="#DejaVuSans-32" x="95.410156"/>
      </g>
     </g>
    </g>
    <g id="text_9">
     <!-- X -->
     <g transform="translate(227.05625 270.876562)scale(0.1 -0.1)">
      <defs>
       <path id="DejaVuSans-58" d="M 403 4666 
L 1081 4666 
L 2241 2931 
L 3406 4666 
L 4084 4666 
L 2584 2425 
L 4184 0 
L 3506 0 
L 2194 1984 
L 872 0 
L 191 0 
L 1856 2491 
L 403 4666 
z
" transform="scale(0.015625)"/>
      </defs>
      <use xlink:href="#DejaVuSans-58"/>
     </g>
    </g>
   </g>
   <g id="matplotlib.axis_2">
    <g id="ytick_1">
     <g id="line2d_9">
      <defs>
       <path id="m625f4e9871" d="M 0 0 
L -3.5 0 
" style="stroke: #000000; stroke-width: 0.8"/>
      </defs>
      <g>
       <use xlink:href="#m625f4e9871" x="43.78125" y="236.934598" style="stroke: #000000; stroke-width: 0.8"/>
      </g>
     </g>
     <g id="text_10">
      <!-- 0.0 -->
      <g transform="translate(20.878125 240.733817)scale(0.1 -0.1)">
       <use xlink:href="#DejaVuSans-30"/>
       <use xlink:href="#DejaVuSans-2e" x="63.623047"/>
       <use xlink:href="#DejaVuSans-30" x="95.410156"/>
      </g>
     </g>
    </g>
    <g id="ytick_2">
     <g id="line2d_10">
      <g>
       <use xlink:href="#m625f4e9871" x="43.78125" y="188.412911" style="stroke: #000000; stroke-width: 0.8"/>
      </g>
     </g>
     <g id="text_11">
      <!-- 0.2 -->
      <g transform="translate(20.878125 192.21213)scale(0.1 -0.1)">
       <use xlink:href="#DejaVuSans-30"/>
       <use xlink:href="#DejaVuSans-2e" x="63.623047"/>
       <use xlink:href="#DejaVuSans-32" x="95.410156"/>
      </g>
     </g>
    </g>
    <g id="ytick_3">
     <g id="line2d_11">
      <g>
       <use xlink:href="#m625f4e9871" x="43.78125" y="139.891225" style="stroke: #000000; stroke-width: 0.8"/>
      </g>
     </g>
     <g id="text_12">
      <!-- 0.4 -->
      <g transform="translate(20.878125 143.690444)scale(0.1 -0.1)">
       <use xlink:href="#DejaVuSans-30"/>
       <use xlink:href="#DejaVuSans-2e" x="63.623047"/>
       <use xlink:href="#DejaVuSans-34" x="95.410156"/>
      </g>
     </g>
    </g>
    <g id="ytick_4">
     <g id="line2d_12">
      <g>
       <use xlink:href="#m625f4e9871" x="43.78125" y="91.369539" style="stroke: #000000; stroke-width: 0.8"/>
      </g>
     </g>
     <g id="text_13">
      <!-- 0.6 -->
      <g transform="translate(20.878125 95.168757)scale(0.1 -0.1)">
       <use xlink:href="#DejaVuSans-30"/>
       <use xlink:href="#DejaVuSans-2e" x="63.623047"/>
       <use xlink:href="#DejaVuSans-36" x="95.410156"/>
      </g>
     </g>
    </g>
    <g id="ytick_5">
     <g id="line2d_13">
      <g>
       <use xlink:href="#m625f4e9871" x="43.78125" y="42.847852" style="stroke: #000000; stroke-width: 0.8"/>
      </g>
     </g>
     <g id="text_14">
      <!-- 0.8 -->
      <g transform="translate(20.878125 46.647071)scale(0.1 -0.1)">
       <use xlink:href="#DejaVuSans-30"/>
       <use xlink:href="#DejaVuSans-2e" x="63.623047"/>
       <use xlink:href="#DejaVuSans-38" x="95.410156"/>
      </g>
     </g>
    </g>
    <g id="text_15">
     <!-- Y -->
     <g transform="translate(14.798438 127.953906)rotate(-90)scale(0.1 -0.1)">
      <defs>
       <path id="DejaVuSans-59" d="M -13 4666 
L 666 4666 
L 1959 2747 
L 3244 4666 
L 3922 4666 
L 2272 2222 
L 2272 0 
L 1638 0 
L 1638 2222 
L -13 4666 
z
" transform="scale(0.015625)"/>
      </defs>
      <use xlink:href="#DejaVuSans-59"/>
     </g>
    </g>
   </g>
   <g id="LineCollection_1">
    <path d="M 297.328067 231.9 
L 241.825013 202.442946 
" clip-path="url(#p6387b69728)" style="fill: none; stroke: #0000ff"/>
    <path d="M 297.328067 231.9 
L 309.406331 200.263843 
" clip-path="url(#p6387b69728)" style="fill: none; stroke: #0000ff"/>
    <path d="M 231.141179 182.397036 
L 285.303101 166.123003 
" clip-path="url(#p6387b69728)" style="fill: none; stroke: #0000ff"/>
    <path d="M 231.141179 182.397036 
L 241.825013 202.442946 
" clip-path="url(#p6387b69728)" style="fill: none; stroke: #0000ff"/>
    <path d="M 231.141179 182.397036 
L 217.391628 131.639143 
" clip-path="url(#p6387b69728)" style="fill: none; stroke: #0000ff"/>
    <path d="M 231.141179 182.397036 
L 189.171043 196.90035 
" clip-path="url(#p6387b69728)" style="fill: none; stroke: #0000ff"/>
    <path d="M 151.22689 215.502614 
L 189.171043 196.90035 
" clip-path="url(#p6387b69728)" style="fill: none; stroke: #0000ff"/>
    <path d="M 151.22689 215.502614 
L 119.729263 150.279291 
" clip-path="url(#p6387b69728)" style="fill: none; stroke: #0000ff"/>
    <path d="M 111.157057 112.672436 
L 137.852742 35.889521 
" clip-path="url(#p6387b69728)" style="fill: none; stroke: #0000ff"/>
    <path d="M 111.157057 112.672436 
L 119.729263 150.279291 
" clip-path="url(#p6387b69728)" style="fill: none; stroke: #0000ff"/>
    <path d="M 111.157057 112.672436 
L 186.603089 82.51648 
" clip-path="url(#p6387b69728)" style="fill: none; stroke: #0000ff"/>
    <path d="M 285.303101 166.123003 
L 241.825013 202.442946 
" clip-path="url(#p6387b69728)" style="fill: none; stroke: #0000ff"/>
    <path d="M 285.303101 166.123003 
L 217.391628 131.639143 
" clip-path="url(#p6387b69728)" style="fill: none; stroke: #0000ff"/>
    <path d="M 285.303101 166.123003 
L 267.991015 91.11748 
" clip-path="url(#p6387b69728)" style="fill: none; stroke: #0000ff"/>
    <path d="M 285.303101 166.123003 
L 330.645055 159.485231 
" clip-path="url(#p6387b69728)" style="fill: none; stroke: #0000ff"/>
    <path d="M 285.303101 166.123003 
L 309.406331 200.263843 
" clip-path="url(#p6387b69728)" style="fill: none; stroke: #0000ff"/>
    <path d="M 241.825013 202.442946 
L 189.171043 196.90035 
" clip-path="url(#p6387b69728)" style="fill: none; stroke: #0000ff"/>
    <path d="M 241.825013 202.442946 
L 309.406331 200.263843 
" clip-path="url(#p6387b69728)" style="fill: none; stroke: #0000ff"/>
    <path d="M 217.391628 131.639143 
L 267.991015 91.11748 
" clip-path="url(#p6387b69728)" style="fill: none; stroke: #0000ff"/>
    <path d="M 217.391628 131.639143 
L 189.171043 196.90035 
" clip-path="url(#p6387b69728)" style="fill: none; stroke: #0000ff"/>
    <path d="M 217.391628 131.639143 
L 119.729263 150.279291 
" clip-path="url(#p6387b69728)" style="fill: none; stroke: #0000ff"/>
    <path d="M 217.391628 131.639143 
L 186.603089 82.51648 
" clip-path="url(#p6387b69728)" style="fill: none; stroke: #0000ff"/>
    <path d="M 267.991015 91.11748 
L 330.645055 159.485231 
" clip-path="url(#p6387b69728)" style="fill: none; stroke: #0000ff"/>
    <path d="M 267.991015 91.11748 
L 243.048193 38.168664 
" clip-path="url(#p6387b69728)" style="fill: none; stroke: #0000ff"/>
    <path d="M 267.991015 91.11748 
L 195.51307 53.850705 
" clip-path="url(#p6387b69728)" style="fill: none; stroke: #0000ff"/>
    <path d="M 267.991015 91.11748 
L 349.805443 126.231267 
" clip-path="url(#p6387b69728)" style="fill: none; stroke: #0000ff"/>
    <path d="M 267.991015 91.11748 
L 186.603089 82.51648 
" clip-path="url(#p6387b69728)" style="fill: none; stroke: #0000ff"/>
    <path d="M 267.991015 91.11748 
L 323.674016 51.765996 
" clip-path="url(#p6387b69728)" style="fill: none; stroke: #0000ff"/>
    <path d="M 330.645055 159.485231 
L 309.406331 200.263843 
" clip-path="url(#p6387b69728)" style="fill: none; stroke: #0000ff"/>
    <path d="M 330.645055 159.485231 
L 349.805443 126.231267 
" clip-path="url(#p6387b69728)" style="fill: none; stroke: #0000ff"/>
    <path d="M 137.852742 35.889521 
L 190.434468 49.196843 
" clip-path="url(#p6387b69728)" style="fill: none; stroke: #0000ff"/>
    <path d="M 137.852742 35.889521 
L 186.603089 82.51648 
" clip-path="url(#p6387b69728)" style="fill: none; stroke: #0000ff"/>
    <path d="M 243.048193 38.168664 
L 195.51307 53.850705 
" clip-path="url(#p6387b69728)" style="fill: none; stroke: #0000ff"/>
    <path d="M 243.048193 38.168664 
L 255.126574 17.9 
" clip-path="url(#p6387b69728)" style="fill: none; stroke: #0000ff"/>
    <path d="M 243.048193 38.168664 
L 190.434468 49.196843 
" clip-path="url(#p6387b69728)" style="fill: none; stroke: #0000ff"/>
    <path d="M 243.048193 38.168664 
L 323.674016 51.765996 
" clip-path="url(#p6387b69728)" style="fill: none; stroke: #0000ff"/>
    <path d="M 195.51307 53.850705 
L 190.434468 49.196843 
" clip-path="url(#p6387b69728)" style="fill: none; stroke: #0000ff"/>
    <path d="M 195.51307 53.850705 
L 186.603089 82.51648 
" clip-path="url(#p6387b69728)" style="fill: none; stroke: #0000ff"/>
    <path d="M 189.171043 196.90035 
L 119.729263 150.279291 
" clip-path="url(#p6387b69728)" style="fill: none; stroke: #0000ff"/>
    <path d="M 349.805443 126.231267 
L 323.674016 51.765996 
" clip-path="url(#p6387b69728)" style="fill: none; stroke: #0000ff"/>
    <path d="M 255.126574 17.9 
L 190.434468 49.196843 
" clip-path="url(#p6387b69728)" style="fill: none; stroke: #0000ff"/>
    <path d="M 255.126574 17.9 
L 323.674016 51.765996 
" clip-path="url(#p6387b69728)" style="fill: none; stroke: #0000ff"/>
    <path d="M 119.729263 150.279291 
L 186.603089 82.51648 
" clip-path="url(#p6387b69728)" style="fill: none; stroke: #0000ff"/>
    <path d="M 190.434468 49.196843 
L 186.603089 82.51648 
" clip-path="url(#p6387b69728)" style="fill: none; stroke: #0000ff"/>
   </g>
   <g id="patch_3">
    <path d="M 43.78125 242.6 
L 43.78125 7.2 
" style="fill: none; stroke: #000000; stroke-width: 0.8; stroke-linejoin: miter; stroke-linecap: square"/>
   </g>
   <g id="patch_4">
    <path d="M 417.18125 242.6 
L 417.18125 7.2 
" style="fill: none; stroke: #000000; stroke-width: 0.8; stroke-linejoin: miter; stroke-linecap: square"/>
   </g>
   <g id="patch_5">
    <path d="M 43.78125 242.6 
L 417.18125 242.6 
" style="fill: none; stroke: #000000; stroke-width: 0.8; stroke-linejoin: miter; stroke-linecap: square"/>
   </g>
   <g id="patch_6">
    <path d="M 43.78125 7.2 
L 417.18125 7.2 
" style="fill: none; stroke: #000000; stroke-width: 0.8; stroke-linejoin: miter; stroke-linecap: square"/>
   </g>
  </g>
 </g>
 <defs>
  <clipPath id="p6387b69728">
   <rect x="43.78125" y="7.2" width="373.4" height="235.4"/>
  </clipPath>
 </defs>
</svg>
